<svg width="200" height="200" viewBox="0 0 200 200" fill="none" xmlns="http://www.w3.org/2000/svg">
  <defs>
    <linearGradient id="glowGradient" x1="28" y1="18" x2="178" y2="182" gradientUnits="userSpaceOnUse">
      <stop offset="0" stop-color="#FF7BCB"/>
      <stop offset="0.55" stop-color="#E46DFF"/>
      <stop offset="1" stop-color="#944BFF"/>
    </linearGradient>
    <linearGradient id="shapeGradient" x1="70" y1="42" x2="142" y2="168" gradientUnits="userSpaceOnUse">
      <stop offset="0" stop-color="#FFFFFF" stop-opacity="0.95"/>
      <stop offset="1" stop-color="#F6E9FF" stop-opacity="0.55"/>
    </linearGradient>
  </defs>
  <rect width="200" height="200" rx="48" fill="url(#glowGradient)"/>
  <path d="M120.3 54.9C109.2 44 88.4 43.3 75.2 54.2C64.3 63.3 61.2 78.6 66.2 91.1C69.3 98.6 74.9 104.9 82.1 109.3C86.8 112.3 88.3 118.7 85.3 123.5C82.6 127.8 77.8 131.1 70.8 133.4C66.4 134.8 63.2 138.7 62.9 143.2C62.5 149.6 66.9 155.1 73 156.4C96.7 161.2 119.7 150.1 131.5 130.9C140.5 116.3 139.8 98.6 130 84.7C127.7 81.4 124.9 78.5 121.8 76C112.8 69 111.8 59.8 120.3 54.9Z" fill="url(#shapeGradient)"/>
  <path d="M123.4 86.9C128.6 94.3 129 104.5 123.1 112.3C115.7 122.4 101.4 125.1 91 118.4" stroke="#F6E9FF" stroke-width="5" stroke-linecap="round" stroke-linejoin="round"/>
  <path d="M96.8 71.6C101.4 74.4 103.2 80.4 100.7 85.2C98.8 88.9 94.7 90.9 90.8 90.2" stroke="#FFFFFF" stroke-width="5" stroke-linecap="round" stroke-linejoin="round"/>
</svg>
